<svg xmlns="http://www.w3.org/2000/svg" viewBox="0 0 512 512" fill="none">
  <defs>
    <filter id="ds" x="-10%" y="-10%" width="120%" height="120%">
      <feDropShadow dx="0" dy="6" stdDeviation="12" flood-opacity="0.3"/>
    </filter>
  </defs>
  <g filter="url(#ds)" transform="translate(256,240) scale(13)">
    <path d="M16 2L4 7v9c0 7.18 4.94 13.9 12 14.5 7.06-.6 12-7.32 12-14.5V7L16 2z" fill="#E63946" transform="translate(-16,-16)"/>
    <path d="M16 8.5l-3.2 6.4h1.6l-2.4 4.8h3.2l-2 4h5.6l-2-4h3.2l-2.4-4.8h1.6L16 8.5z" fill="#fff" transform="translate(-16,-16)"/>
    <circle cx="13" cy="22.5" fill="#fff" r="0.9" transform="translate(-16,-16)"/>
    <circle cx="19" cy="22.5" fill="#fff" r="0.9" transform="translate(-16,-16)"/>
    <circle cx="16" cy="24" fill="#fff" r="0.9" transform="translate(-16,-16)"/>
  </g>
  <text x="256" y="465" text-anchor="middle"
        font-family="system-ui, -apple-system, Segoe UI, sans-serif"
        font-size="36" font-weight="700" fill="#E63946" letter-spacing="2">
    AgentGuard
  </text>
</svg>
